<svg viewBox="0 0 34.963 32" xmlns="http://www.w3.org/2000/svg" xmlns:xlink="http://www.w3.org/1999/xlink" width="34.962952" height="32.000000" fill="none" customFrame="#000000">
	<rect id="bx:bxs-phone-call" width="34.962963" height="32.000000" x="0.000000" y="0.000000" fill="rgb(205,6,255)" fill-opacity="0" />
	<path id="Vector" d="M29.1358 14.6652L32.0494 14.6652C32.0494 7.82517 26.4072 2.6665 18.9237 2.6665L18.9237 5.33317C24.8412 5.33317 29.1358 9.25717 29.1358 14.6652Z" fill="rgb(205.275,6.37499,255)" fill-rule="nonzero" />
	<path id="Vector" d="M18.9383 10.6667C22.0019 10.6667 23.3087 11.8627 23.3087 14.6667L26.2223 14.6667C26.2223 10.3667 23.6365 7.99999 18.9383 7.99999L18.9383 10.6667ZM23.9234 17.924C23.6435 17.6911 23.2757 17.5669 22.8976 17.5776C22.5195 17.5883 22.1607 17.7331 21.897 17.9813L18.4109 21.2627C17.5718 21.116 15.8849 20.6347 14.1484 19.0493C12.4119 17.4587 11.886 15.9107 11.7301 15.148L15.3124 11.956C15.5839 11.7148 15.7423 11.3864 15.754 11.0403C15.7657 10.6941 15.6298 10.3574 15.375 10.1013L9.99216 4.68399C9.73728 4.42714 9.38304 4.27133 9.00468 4.24967C8.62631 4.22801 8.25362 4.3422 7.96576 4.56799L4.80453 7.04933C4.55267 7.28068 4.40234 7.58859 4.38206 7.91466C4.36021 8.24799 3.94357 16.144 10.6331 22.2693C16.469 27.6093 23.7792 28 25.7925 28C26.0868 28 26.2674 27.992 26.3155 27.9893C26.6717 27.9711 27.0079 27.8329 27.2595 27.6013L29.9691 24.7067C30.216 24.4434 30.341 24.1024 30.3176 23.7561C30.2942 23.4098 30.1243 23.0855 29.8438 22.852L23.9234 17.924Z" fill="rgb(205.275,6.37499,255)" fill-rule="nonzero" />
</svg>
