<svg viewBox="0 0 34.963 32" xmlns="http://www.w3.org/2000/svg" xmlns:xlink="http://www.w3.org/1999/xlink" width="34.962952" height="32.000000" fill="none" customFrame="#000000">
	<rect id="envelope" width="34.962963" height="32.000000" x="0.000000" y="0.000000" fill="rgb(255,255,255)" fill-opacity="0" />
	<g id="Group">
		<g id="Group">
			<g id="Group">
				<path id="Vector" d="M0.729844 5.94725C5.52837 9.66669 13.9483 16.2103 16.423 18.2506C16.7552 18.526 17.1116 18.666 17.4815 18.666C17.8506 18.666 18.2063 18.5273 18.5378 18.2533C21.0146 16.2109 29.4346 9.66669 34.2332 5.94725C34.5319 5.71613 34.5775 5.30987 34.3356 5.02731C33.7765 4.37437 32.9428 4 32.0493 4L2.91359 4C2.0202 4 1.18648 4.37438 0.627414 5.02738C0.385541 5.30988 0.431088 5.71613 0.729844 5.94725Z" fill="rgb(205.275,6.37499,255)" fill-rule="nonzero" />
				<path id="Vector" d="M34.5405 7.96303C34.2823 7.85303 33.9785 7.89141 33.7637 8.05941C28.4422 12.1883 21.6505 17.4807 19.5137 19.243C18.3144 20.2338 16.6499 20.2338 15.4478 19.2417C13.1701 17.3634 5.54327 11.4292 1.19926 8.05934C0.982992 7.89134 0.678568 7.85428 0.422492 7.96297C0.16505 8.07241 0 8.30809 0 8.56784L0 25.3335C0 26.8042 1.30667 28.0002 2.9136 28.0002L32.0494 28.0002C33.6563 28.0002 34.963 26.8042 34.963 25.3335L34.963 8.56784C34.963 8.30809 34.7979 8.07178 34.5405 7.96303Z" fill="rgb(205.275,6.37499,255)" fill-rule="nonzero" />
			</g>
		</g>
	</g>
</svg>
