<svg viewBox="0 0 50 50.0024" xmlns="http://www.w3.org/2000/svg" xmlns:xlink="http://www.w3.org/1999/xlink" width="50.000000" height="50.002441" fill="none" customFrame="#000000">
	<path id="Vector" d="M25.0006 0C11.1949 0 0 11.1936 0 25.0006C0 35.2378 6.15577 44.0314 14.9647 47.8981C14.8942 46.1526 14.9513 44.0558 15.4 42.159C15.8808 40.1282 18.6167 28.5359 18.6167 28.5359C18.6167 28.5359 17.8179 26.9397 17.8179 24.5808C17.8179 20.8763 19.9654 18.1077 22.6385 18.1077C24.9122 18.1077 26.0109 19.8154 26.0109 21.8609C26.0109 24.1468 24.5538 27.5635 23.8038 30.7327C23.1769 33.3859 25.134 35.5481 27.75 35.5481C32.4865 35.5481 35.6763 29.4647 35.6763 22.2558C35.6763 16.7782 31.9865 12.6769 25.2744 12.6769C17.6904 12.6769 12.966 18.3321 12.966 24.6487C12.966 26.8282 13.6083 28.3635 14.6147 29.5513C15.0769 30.0981 15.141 30.318 14.9737 30.9462C14.8538 31.4058 14.5782 32.5128 14.4647 32.9519C14.2987 33.5853 13.7859 33.8109 13.2128 33.5776C9.71987 32.1513 8.09295 28.3263 8.09295 24.0263C8.09295 16.9237 14.0821 8.40898 25.9603 8.40898C35.5058 8.40898 41.7878 15.316 41.7878 22.732C41.7878 32.5378 36.3353 39.8647 28.2981 39.8647C25.6 39.8647 23.0609 38.4051 22.191 36.7487C22.191 36.7487 20.7397 42.5077 20.4327 43.6218C19.9026 45.5494 18.8647 47.4763 17.916 48.9769C20.2163 49.6571 22.6025 50.0025 25.0013 50.0026C38.8064 50.0013 50 38.8071 50 25.0006C50 11.1936 38.8064 0 25.0006 0Z" fill="rgb(255,255,255)" fill-rule="nonzero" />
</svg>
