<svg viewBox="0 0 50.0001 50" xmlns="http://www.w3.org/2000/svg" xmlns:xlink="http://www.w3.org/1999/xlink" width="50.000092" height="50.000000" fill="none" customFrame="#000000">
	<g id="Group">
		<path id="Vector" d="M44.7443 9.66895C48.1585 14.0492 50.0086 19.446 50 24.9997C50 38.8048 38.8052 49.9997 25.0007 49.9997C15.2872 49.9997 6.86609 44.4574 2.72763 36.3644L13.6238 36.3644C18.8161 36.3644 22.443 33.5657 22.443 29.092C22.443 19.6106 11.5052 23.4734 11.5052 20.1087C11.5052 18.4875 12.8058 17.8978 15.186 17.8978L22.7693 17.8978C24.8712 17.8978 27.3436 18.2747 27.3436 20.5683L27.3436 28.1241C27.3436 33.5952 31.6161 36.3638 36.0443 36.3638C40.5481 36.3638 44.7436 33.5952 44.7436 28.1241L44.7436 9.66895L44.7443 9.66895Z" fill="rgb(255,255,255)" fill-rule="evenodd" />
		<path id="Vector" d="M25.0006 2.43241e-05C30.0174 -0.00698868 34.9192 1.50262 39.0628 4.33079L39.0628 28.3013C39.0628 29.9628 37.7038 31.3224 36.0449 31.3224C34.384 31.3224 33.0263 29.9628 33.0263 28.3013L33.0263 21.1186C33.0263 15.3846 30.1243 12.9994 26.3449 12.9994L14.0442 12.9994C9.59103 12.9994 5.8968 15.834 5.8968 20.3289C5.8968 22.6289 6.88206 25.9994 11.5417 26.8353C15.3372 27.5186 16.8353 27.3199 16.8353 29.3506C16.8353 31.3224 14.6263 31.3224 11.7103 31.3224L0.808342 31.3224C0.269828 29.2582 -0.00183001 27.1334 9.27722e-06 25C9.27722e-06 11.1981 11.1962 2.43241e-05 25.0006 2.43241e-05Z" fill="rgb(255,255,255)" fill-rule="evenodd" />
	</g>
</svg>
